<svg width="41" height="41" viewBox="0 0 41 41" fill="none" xmlns="http://www.w3.org/2000/svg">
<path d="M21.5194 20.5263C20.0159 18.7543 18.7174 17.2239 18.7174 13.8152V7.13048H19.1631V0H10.25V7.13048H10.6957V13.8152C10.6957 17.2239 9.3972 18.7543 7.89358 20.5263C6.28256 22.4252 4.45654 24.5773 4.45654 28.9675V41H24.9565V28.9674C24.9565 24.5772 23.1305 22.4252 21.5194 20.5263ZM12.9239 2.67389H16.4892V4.45651H12.9239V2.67389ZM13.3696 13.8152V7.13048H16.0435V13.8152C16.0435 15.4731 16.3042 16.8114 16.7151 17.9378L14.7066 19.9463L12.6982 17.9379C13.109 16.8114 13.3696 15.473 13.3696 13.8152ZM22.2827 38.3261H7.13043V28.9674C7.13043 25.5587 8.4289 24.0283 9.93253 22.2563C10.4184 21.6836 10.9237 21.0871 11.3928 20.4139L14.7065 23.7276L18.0203 20.4138C18.4894 21.0871 18.9947 21.6835 19.4806 22.2562C20.9842 24.0283 22.2827 25.5587 22.2827 28.9674V38.3261Z" fill="black"/>
<path d="M9.80432 27.6304V35.6521H19.6087V27.6304H9.80432ZM16.9347 32.9782H12.4782V30.3043H16.9347V32.9782Z" fill="black"/>
<path d="M36.5435 24.5109V8.91309H26.7391V24.5109C26.7391 26.7505 28.2492 28.6427 30.3044 29.2263V38.3261H27.1849V41.0001H36.0979V38.3262H32.9783V29.2263C35.0334 28.6427 36.5435 26.7505 36.5435 24.5109ZM29.413 11.5871H33.8695V14.2609H29.413V11.5871ZM31.6413 26.7392C30.4126 26.7392 29.413 25.7396 29.413 24.5109V16.9348H33.8695V24.5109C33.8696 25.7396 32.87 26.7392 31.6413 26.7392Z" fill="black"/>
</svg>
