<svg width="36" height="36" viewBox="0 0 36 36" fill="none" xmlns="http://www.w3.org/2000/svg">
<path d="M30.2595 0H5.73931L5.22913 3.47126H30.7702L30.2595 0Z" fill="black"/>
<path d="M5.73931 36.0001H30.2595L30.7702 32.5288H5.22913L5.73931 36.0001Z" fill="black"/>
<path d="M1.36682 15.8901V20.7493H34.6331V15.8901H1.36682ZM8.63299 19.2182C8.13728 19.2182 7.73418 18.8163 7.73418 18.3194C7.73418 17.8237 8.13721 17.4213 8.63299 17.4213C9.12869 17.4213 9.53172 17.8237 9.53172 18.3194C9.53179 18.8163 9.12869 19.2182 8.63299 19.2182ZM18.1432 19.2182C17.6475 19.2182 17.2444 18.8163 17.2444 18.3194C17.2444 17.8237 17.6474 17.4213 18.1432 17.4213C18.6389 17.4213 19.0419 17.8237 19.0419 18.3194C19.0419 18.8163 18.6388 19.2182 18.1432 19.2182ZM27.6533 19.2182C27.1576 19.2182 26.7545 18.8163 26.7545 18.3194C26.7545 17.8237 27.1575 17.4213 27.6533 17.4213C28.149 17.4213 28.552 17.8237 28.552 18.3194C28.5521 18.8163 28.149 19.2182 27.6533 19.2182Z" fill="black"/>
<path d="M18.7592 21.6746V31.8706H25.8653C26.6318 28.8734 27.1659 25.41 27.397 21.6746H18.7592Z" fill="black"/>
<path d="M10.7048 31.8706H17.5271V21.6746H9.17554C9.36686 24.7794 9.76391 27.6996 10.3354 30.3172C10.4509 30.849 10.5755 31.3646 10.7048 31.8706Z" fill="black"/>
<path d="M27.4368 30.5801C27.3405 31.0187 27.2395 31.4476 27.1342 31.8706H30.828C32.501 28.9672 33.6435 25.4797 34.0689 21.6746H28.6274C28.4342 24.8667 28.0275 27.8729 27.4368 30.5801Z" fill="black"/>
<path d="M7.93757 21.6746H1.92993C2.35588 25.4797 3.49769 28.9672 5.17134 31.8706H9.43551C8.68176 28.8372 8.16138 25.3852 7.93757 21.6746Z" fill="black"/>
<path d="M28.7086 14.9644H34.123C33.7464 10.9589 32.5768 7.28792 30.828 4.25464H27.3892C28.1046 7.46237 28.5665 11.09 28.7086 14.9644Z" fill="black"/>
<path d="M17.5272 14.9644V4.25464H10.4402C9.71349 7.42981 9.23698 11.0683 9.09143 14.9644H17.5272Z" fill="black"/>
<path d="M26.124 4.25464H18.7592V14.9644H27.4721C27.3332 11.2591 26.9013 7.78362 26.2335 4.72025C26.1986 4.56141 26.1601 4.41101 26.124 4.25464Z" fill="black"/>
<path d="M9.13168 4.45791C9.14673 4.38872 9.16423 4.32319 9.17921 4.25464H5.17133C3.42308 7.28792 2.2523 10.9589 1.87634 14.9644H7.86345C8.00309 11.1742 8.4429 7.61333 9.13168 4.45791Z" fill="black"/>
</svg>
