<svg width="36" height="36" viewBox="0 0 36 36" fill="none" xmlns="http://www.w3.org/2000/svg">
<path d="M18 18C18 16.8954 18.8954 16 20 16H32C33.1046 16 34 16.8954 34 18V32C34 33.1046 33.1046 34 32 34H20C18.8954 34 18 33.1046 18 32V18Z" stroke="#CE1717" stroke-width="3" stroke-linecap="round"/>
<path d="M2 4C2 2.89544 2.89544 2 4 2H10C11.1046 2 12 2.89544 12 4V32C12 33.1046 11.1046 34 10 34H4C2.89544 34 2 33.1046 2 32V4Z" stroke="#CE1717" stroke-width="3" stroke-linecap="round"/>
<path d="M18 4C18 2.89544 18.8954 2 20 2H32C33.1046 2 34 2.89544 34 4V8C34 9.10456 33.1046 10 32 10H20C18.8954 10 18 9.10456 18 8V4Z" stroke="#CE1717" stroke-width="3" stroke-linecap="round"/>
</svg>
