<svg width="36" height="36" viewBox="0 0 36 36" fill="none" xmlns="http://www.w3.org/2000/svg">
<g clip-path="url(#clip0_33_81)">
<path d="M7.71423 0V2.57143V12.8571H10.2857V2.57143H25.7142V10.2857H33.4285V33.4286H12.8571H11.5714H10.2857H7.71423V36H10.2857H35.9999V33.4286V8.92121L27.0787 0H10.2857H7.71423Z" fill="black"/>
<path d="M12.8571 15.4285C11.8441 15.4285 10.841 15.628 9.90501 16.0157C8.96907 16.4034 8.11866 16.9716 7.40232 17.6879C6.68598 18.4043 6.11775 19.2547 5.73007 20.1906C5.34239 21.1266 5.14286 22.1297 5.14286 23.1428C5.14624 24.5576 5.53869 25.9444 6.27727 27.1512L0 33.4285L2.57143 35.9999L8.84682 29.7245C10.0544 30.4628 11.4418 30.8546 12.8571 30.857C13.8702 30.857 14.8733 30.6575 15.8093 30.2698C16.7452 29.8821 17.5956 29.3139 18.312 28.5976C19.0283 27.8812 19.5965 27.0308 19.9842 26.0949C20.3719 25.1589 20.5714 24.1558 20.5714 23.1428C20.5714 22.1297 20.3719 21.1266 19.9842 20.1906C19.5965 19.2547 19.0283 18.4043 18.312 17.6879C17.5956 16.9716 16.7452 16.4034 15.8093 16.0157C14.8733 15.628 13.8702 15.4285 12.8571 15.4285ZM12.8571 17.9999C13.5325 17.9999 14.2013 18.1329 14.8252 18.3914C15.4492 18.6498 16.0161 19.0286 16.4937 19.5062C16.9713 19.9838 17.3501 20.5507 17.6085 21.1747C17.867 21.7986 18 22.4674 18 23.1428C18 23.8181 17.867 24.4869 17.6085 25.1108C17.3501 25.7348 16.9713 26.3017 16.4937 26.7793C16.0161 27.2569 15.4492 27.6357 14.8252 27.8941C14.2013 28.1526 13.5325 28.2856 12.8571 28.2856C12.1818 28.2856 11.513 28.1526 10.8891 27.8941C10.2651 27.6357 9.69815 27.2569 9.22059 26.7793C8.74304 26.3017 8.36421 25.7348 8.10576 25.1108C7.84731 24.4869 7.71429 23.8181 7.71429 23.1428C7.71429 22.4674 7.84731 21.7986 8.10576 21.1747C8.36421 20.5507 8.74304 19.9838 9.22059 19.5062C9.69815 19.0286 10.2651 18.6498 10.8891 18.3914C11.513 18.1329 12.1818 17.9999 12.8571 17.9999Z" fill="black"/>
</g>
<defs>
<clipPath id="clip0_33_81">
<rect width="36" height="36" fill="white"/>
</clipPath>
</defs>
</svg>
