<svg width="37" height="37" viewBox="0 0 37 37" fill="none" xmlns="http://www.w3.org/2000/svg">
<path d="M20.0378 1.30762C20.2127 3.7408 20.031 6.12716 19.3898 8.47543C19.3499 8.31876 19.3067 8.16411 19.2588 8.01033C18.5828 5.8399 17.1248 3.98043 14.828 2.56779C13.264 1.37193 10.4733 0.855451 6.6304 1.96487C6.793 3.57351 9.91502 3.75865 10.9776 3.90477C8.88957 4.36489 6.58415 6.15809 3.50708 6.52202C6.34885 8.02109 10.2032 6.83969 12.834 5.67737C12.6986 6.95756 11.8447 7.77546 11.0613 9.98397C14.5179 9.18457 16.1813 7.27994 16.2756 5.46289C17.083 6.3454 17.6315 7.32807 17.9692 8.4122C18.2225 9.22518 18.3551 10.1026 18.3735 11.0386C18.6534 11.3978 18.8721 11.8072 19.0104 12.2512C19.3945 12.0337 19.8196 11.8802 20.2705 11.8064C20.7118 10.7282 21.2087 9.84876 21.7541 9.1936C22.8294 7.90222 23.9919 7.41963 25.6203 7.73456L25.6227 7.72336C27.9788 9.36364 27.3653 12.1294 26.5079 14.1821C28.0679 13.6997 28.9216 12.742 28.9243 11.0768C30.2212 11.9274 30.7615 13.3238 31.1329 14.8393C31.6547 13.2854 31.55 11.6029 30.2092 10.1533L33.3416 11.3457C31.3236 8.93468 29.4163 6.36491 25.7335 6.38189C23.8215 6.06031 22.1267 6.74084 20.8645 8.15695C21.4 5.89865 21.5464 3.6087 21.3906 1.30762H20.0378H20.0378ZM15.3586 10.91C13.9855 10.91 12.8859 12.0073 12.8859 13.3805C12.8859 13.8726 13.0277 14.3291 13.272 14.7129C13.5365 14.6546 13.8106 14.6226 14.0918 14.6226C15.0353 14.6226 15.9006 14.9699 16.5691 15.5418C17.3235 15.12 17.8294 14.3127 17.8294 13.3805C17.8294 12.0073 16.732 10.9099 15.3586 10.9099V10.91ZM11.138 12.2603C9.76471 12.2603 8.66504 13.3577 8.66504 14.731C8.66504 15.8855 9.44189 16.848 10.5056 17.1248C10.795 16.3446 11.3324 15.6836 12.0211 15.2367C11.7127 14.6864 11.5354 14.0527 11.5354 13.3804C11.5354 13.0131 11.5889 12.6579 11.6868 12.3213C11.5104 12.2819 11.3266 12.2603 11.1379 12.2603L11.138 12.2603ZM20.887 13.105C19.5138 13.105 18.4143 14.2023 18.4143 15.5755C18.4143 15.8281 18.4512 16.0717 18.5204 16.3005C18.8185 16.2253 19.1303 16.1854 19.4509 16.1854C20.6218 16.1854 21.6727 16.7187 22.3755 17.5538C22.9734 17.1039 23.3578 16.3879 23.3578 15.5755C23.3578 14.2025 22.2604 13.1051 20.887 13.1051V13.105ZM14.0918 15.9729C12.7186 15.9729 11.6189 17.0727 11.6189 18.4458C11.6189 19.819 12.7188 20.9188 14.0918 20.9188C15.4649 20.9188 16.5648 19.819 16.5648 18.4458C16.5648 17.0727 15.4651 15.9729 14.0918 15.9729ZM24.7261 16.4811C24.6832 16.4811 24.6398 16.4812 24.5975 16.4834C24.3713 17.4038 23.8092 18.1943 23.0505 18.7191C23.1958 19.122 23.274 19.5549 23.274 20.0064C23.274 20.3063 23.2362 20.5977 23.1701 20.8781C23.5938 21.2206 24.1341 21.4246 24.726 21.4246C26.0993 21.4246 27.1989 20.3249 27.1989 18.9517C27.1989 17.5785 26.0993 16.4811 24.726 16.4811H24.7261ZM19.4508 17.5357C18.8603 17.5357 18.3202 17.7395 17.897 18.0799C17.9086 18.2008 17.9151 18.3221 17.9151 18.4458C17.9151 19.3277 17.613 20.1413 17.1067 20.79C17.4311 21.775 18.3518 22.4792 19.4507 22.4792C20.8239 22.4792 21.9236 21.3795 21.9236 20.0063C21.9236 18.6331 20.8239 17.5357 19.4507 17.5357H19.4508ZM9.02644 18.3374C7.65318 18.3374 6.55589 19.437 6.55589 20.8104C6.55589 21.6744 6.99122 22.4289 7.65563 22.8699C7.97216 21.4145 9.12299 20.2651 10.5778 19.9475C10.4075 19.5522 10.302 19.1236 10.2752 18.6739C9.90931 18.4607 9.48366 18.3374 9.02644 18.3374ZM11.391 21.2078C10.0176 21.2078 8.91804 22.3051 8.91804 23.6783C8.91804 25.0516 10.0177 26.1512 11.391 26.1512C12.764 26.1512 13.8614 25.0516 13.8614 23.6783C13.8614 23.1216 13.6819 22.6104 13.376 22.199C12.641 22.0584 11.9785 21.7081 11.4564 21.21C11.4347 21.2094 11.4128 21.2078 11.391 21.2078ZM16.043 21.7293C15.6943 21.9379 15.3106 22.0921 14.9026 22.181C15.1004 22.6417 15.2119 23.1469 15.2119 23.6783C15.2119 24.4612 14.9735 25.191 14.566 25.7988C15.016 26.2771 15.6565 26.5735 16.3705 26.5735C17.7437 26.5735 18.8433 25.4737 18.8433 24.1006C18.8433 23.9902 18.8345 23.8817 18.8207 23.7754C17.6073 23.5719 16.5841 22.7923 16.043 21.7293ZM22.6213 22.1381C22.0659 22.9601 21.1986 23.555 20.1938 23.7551C20.5563 24.6672 21.443 25.3064 22.4904 25.3064C23.8637 25.3064 24.9633 24.209 24.9633 22.8358C24.9633 22.8132 24.9616 22.7905 24.961 22.7681C24.8833 22.7728 24.8049 22.7748 24.7261 22.7748C23.9497 22.7748 23.2259 22.54 22.6214 22.138L22.6213 22.1381ZM19.8752 25.6159C19.5428 26.3789 18.9695 27.015 18.2517 27.4247C18.5393 28.4713 19.4913 29.2313 20.6341 29.2313C22.0074 29.2313 23.1049 28.134 23.1049 26.7607C23.1049 26.7094 23.1033 26.6577 23.1002 26.6072C22.9015 26.6393 22.6979 26.6569 22.4905 26.6569C21.4812 26.6569 20.5605 26.2599 19.8752 25.6159ZM13.638 26.7675C13.2208 27.0726 12.7395 27.2929 12.2197 27.4089C12.1607 27.6215 12.1272 27.8451 12.1272 28.0773C12.1272 29.4507 13.2245 30.5481 14.5977 30.5481C15.9709 30.5481 17.0706 29.4507 17.0706 28.0773C17.0706 28.0046 17.0676 27.9317 17.0615 27.8605C16.8373 27.9021 16.6062 27.9238 16.3704 27.9238C15.3027 27.9238 14.3333 27.4796 13.6381 26.7676L13.638 26.7675ZM9.20942 26.8127C9.02283 27.1612 8.91804 27.5593 8.91804 27.9848C8.91804 29.358 10.0177 30.4555 11.391 30.4555C11.4627 30.4555 11.533 30.4523 11.6031 30.4464C11.0857 29.7943 10.7766 28.9705 10.7766 28.0774C10.7766 27.8668 10.7954 27.6604 10.8287 27.4588C10.2336 27.3701 9.68297 27.1441 9.20942 26.8128V26.8127ZM18.0958 29.6108C18.0085 29.8083 17.9045 29.9969 17.7865 30.1754C18.5229 30.8202 19.011 31.7421 19.0849 32.7747C20.35 32.727 21.3593 31.7442 21.4516 30.4917C21.1879 30.5496 20.9147 30.582 20.6341 30.582C19.662 30.582 18.7723 30.2134 18.0958 29.6109L18.0958 29.6108ZM16.8605 31.151C16.2262 31.62 15.4432 31.8985 14.5977 31.8985C14.118 31.8985 13.6597 31.8085 13.2359 31.6455C12.9627 32.0432 12.8023 32.5248 12.8023 33.0479C12.8023 34.4212 13.8997 35.5208 15.2729 35.5208C16.6461 35.5208 17.7459 34.4212 17.7459 33.0479C17.7459 32.2812 17.4022 31.6027 16.8606 31.1509L16.8605 31.151Z" fill="black"/>
</svg>
