<svg width="43" height="43" viewBox="0 0 43 43" fill="none" xmlns="http://www.w3.org/2000/svg">
<g clip-path="url(#clip0_33_117)">
<path d="M30.9062 32.25H25.5312V37.625H30.9062V32.25Z" fill="black"/>
<path d="M40.3125 32.25H34.9375V37.625H40.3125V32.25Z" fill="black"/>
<path d="M30.9062 22.8438H25.5312V28.2188H30.9062V22.8438Z" fill="black"/>
<path d="M40.3125 22.8438H34.9375V28.2188H40.3125V22.8438Z" fill="black"/>
<path d="M22.8438 32.25H5.375V13.4375H37.625V20.1562H40.3125V13.4375C40.3117 12.725 40.0283 12.0419 39.5244 11.5381C39.0206 11.0342 38.3375 10.7508 37.625 10.75H29.5625V5.375C29.5617 4.66248 29.2783 3.97938 28.7744 3.47555C28.2706 2.97173 27.5875 2.68832 26.875 2.6875H16.125C15.4124 2.68821 14.7293 2.97159 14.2254 3.47544C13.7216 3.97929 13.4382 4.66245 13.4375 5.375V10.75H5.375C4.66245 10.7507 3.97929 11.0341 3.47544 11.5379C2.97159 12.0418 2.68821 12.7249 2.6875 13.4375V32.25C2.68832 32.9625 2.97173 33.6456 3.47555 34.1494C3.97938 34.6533 4.66248 34.9367 5.375 34.9375H22.8438V32.25ZM16.125 5.375H26.875V10.75H16.125V5.375Z" fill="black"/>
</g>
<defs>
<clipPath id="clip0_33_117">
<rect width="43" height="43" fill="white"/>
</clipPath>
</defs>
</svg>
