<svg width="48" height="48" viewBox="0 0 48 48" fill="none" xmlns="http://www.w3.org/2000/svg">
<path d="M24 24C24 22.8954 24.8954 22 26 22H38C39.1046 22 40 22.8954 40 24V38C40 39.1046 39.1046 40 38 40H26C24.8954 40 24 39.1046 24 38V24Z" stroke="black" stroke-width="3" stroke-linecap="round"/>
<path d="M8 10C8 8.89544 8.89544 8 10 8H16C17.1046 8 18 8.89544 18 10V38C18 39.1046 17.1046 40 16 40H10C8.89544 40 8 39.1046 8 38V10Z" stroke="black" stroke-width="3" stroke-linecap="round"/>
<path d="M24 10C24 8.89544 24.8954 8 26 8H38C39.1046 8 40 8.89544 40 10V14C40 15.1046 39.1046 16 38 16H26C24.8954 16 24 15.1046 24 14V10Z" stroke="black" stroke-width="3" stroke-linecap="round"/>
</svg>
