<svg width="51" height="36" viewBox="0 0 51 36" fill="none" xmlns="http://www.w3.org/2000/svg">
<path d="M20.2267 7.62528C18.8612 6.24489 18.6263 4.02663 19.8103 2.48525C21.2409 0.622951 23.9044 0.498267 25.5 2.11132C27.0956 0.498267 29.7592 0.622835 31.1898 2.48525C32.3738 4.02651 32.1387 6.24489 30.7733 7.62528L27.0282 11.4113C26.1849 12.2638 24.8153 12.2638 23.972 11.4113L20.2267 7.62528ZM3.6368 11.7725C3.99863 12.1435 4.59497 12.1435 4.95681 11.7725L7.25608 9.41476C8.06468 8.58553 8.22255 7.25423 7.49853 6.35033C6.67518 5.32221 5.19142 5.26678 4.29686 6.18416C3.4023 5.2669 1.91854 5.32232 1.09519 6.35033C0.371171 7.25434 0.529042 8.58553 1.33764 9.41476L3.6368 11.7725ZM46.043 11.7751C46.4049 12.1462 47.0012 12.1462 47.363 11.7751L49.6622 9.41741C50.4708 8.58818 50.6287 7.25699 49.9047 6.35298C49.0813 5.32486 47.5976 5.26943 46.703 6.18681C45.8084 5.26955 44.3247 5.32497 43.5013 6.35298C42.7773 7.25699 42.9352 8.5883 43.7438 9.41741L46.043 11.7751ZM50.3905 30.235L45.1766 35.449C44.8175 35.808 44.2356 35.8091 43.8753 35.4513L43.218 34.7987C42.4957 34.0815 42.4936 32.914 43.2133 32.1943L43.8725 31.5353L43.8727 31.535L39.1216 26.7839C38.189 27.2906 37.1403 27.5612 36.0492 27.5612C34.3261 27.5612 32.706 26.8905 31.4876 25.6716L26.2714 20.4554C25.9081 20.0921 25.678 19.65 25.5594 19.1854C25.441 19.6501 25.2112 20.0923 24.8484 20.4554C24.848 20.4554 24.848 20.4554 24.848 20.4554L19.6313 25.6716C18.4128 26.8905 16.7932 27.5612 15.0697 27.5612C13.9787 27.5612 12.9302 27.2906 11.9977 26.784L7.24686 31.5353L7.906 32.1943C8.62575 32.914 8.62368 34.0815 7.90139 34.7987L7.24409 35.4513C6.88376 35.8091 6.30182 35.808 5.94275 35.449L0.728858 30.235C0.367944 29.874 0.368981 29.2885 0.731278 28.929L1.38857 28.2763C2.10971 27.5603 3.27415 27.5623 3.99276 28.281L4.63807 28.9264L4.63853 28.9268L9.39713 24.1754C8.07862 21.7319 8.44633 18.612 10.5065 16.55L15.7218 11.3302C16.7669 10.2858 18.5896 10.2858 19.6339 11.3302L24.8482 16.5445C25.2111 16.9078 25.4411 17.35 25.5596 17.8148C25.6781 17.35 25.9083 16.9078 26.2715 16.5445L31.4858 11.3302C32.5302 10.2858 34.3523 10.2858 35.3975 11.3302L40.6127 16.55C42.6728 18.612 43.0406 21.7318 41.7224 24.1751L46.481 28.9266L46.4813 28.9264L47.1266 28.281C47.8452 27.5624 49.0096 27.5604 49.7309 28.2763L50.3882 28.929C50.7504 29.2887 50.7514 29.8742 50.3905 30.235ZM23.5441 17.8482L18.3302 12.6338C18.156 12.4601 17.9242 12.3637 17.678 12.3637C17.4313 12.3637 17.2 12.4591 17.0262 12.6338L11.8109 17.8536C11.5025 18.1622 11.2668 18.5119 11.0643 18.8756C12.8218 17.7841 15.1991 18.0001 16.3089 18.666C18.1551 19.7882 19.4234 21.3927 21.1591 21.537L23.5441 19.1519C23.9034 18.7925 23.9034 18.2074 23.5441 17.8482ZM27.5751 19.1517L29.9601 21.5367C31.6959 21.3926 32.9643 19.788 34.8105 18.6658C35.9202 17.9999 38.2973 17.7839 40.0548 18.8753C39.8524 18.5117 39.6167 18.1621 39.3083 17.8535L34.093 12.6337C33.9192 12.459 33.6878 12.3636 33.4417 12.3636C33.1956 12.3636 32.9637 12.4599 32.7895 12.6337L27.5751 17.8481C27.2159 18.2074 27.2159 18.7925 27.5751 19.1517Z" fill="black"/>
</svg>
