<svg width="194" height="60" viewBox="0 0 194 60" fill="none" xmlns="http://www.w3.org/2000/svg">
<g clip-path="url(#clip0_12_929)">
<path d="M27.5507 19.376C27.5507 20.156 27.3635 20.9048 26.9579 21.6537C26.5522 22.4025 26.0218 23.0889 25.3354 23.7441C24.649 24.3994 23.8689 24.9922 22.9329 25.5226C22.0281 26.053 21.0608 26.5211 20.0624 26.8955C20.2184 26.8643 20.3744 26.8643 20.5304 26.8643C20.6864 26.8643 20.8424 26.8643 20.9984 26.8643C22.1841 26.8643 23.3385 26.9579 24.493 27.1763C25.6474 27.3635 26.7083 27.7379 27.6131 28.2683C28.5491 28.7987 29.298 29.5164 29.8596 30.4524C30.4212 31.3885 30.702 32.5429 30.702 33.9782C30.702 35.1014 30.546 36.0998 30.234 36.9735C29.922 37.8471 29.4852 38.6271 28.9235 39.3136C28.3619 40 27.7067 40.5928 26.9579 41.0608C26.209 41.5601 25.429 41.9657 24.5866 42.3089C23.7441 42.6521 22.8705 42.9329 21.9969 43.1201C21.1232 43.3073 20.2184 43.4945 19.376 43.5881C18.5335 43.7129 17.7223 43.7753 16.9423 43.8378C16.1622 43.869 15.4758 43.9002 14.883 43.9002C14.2902 43.9002 13.6661 43.869 13.0421 43.8378C12.3869 43.8066 11.7629 43.7442 11.1076 43.7129C10.4524 43.6505 9.82838 43.5881 9.23556 43.5257C8.61153 43.4633 8.01871 43.3697 7.48829 43.2761C6.17783 43.0889 4.89858 42.8705 3.65053 42.6209L3.86894 16.2246C3.86894 15.9126 3.80654 15.6006 3.71294 15.2574C3.61933 14.9142 3.43212 14.571 3.15131 14.2902C2.8705 13.9782 2.49609 13.7285 1.99687 13.5413C1.49765 13.3229 0.842421 13.2293 0.031189 13.2293V12.4805H14.2902C16.3182 12.4805 18.1279 12.5741 19.7816 12.7301C21.404 12.8861 22.8081 13.2293 23.9625 13.7285C25.117 14.2278 26.0218 14.9142 26.6459 15.819C27.2387 16.7239 27.5507 17.9095 27.5507 19.376ZM20.4368 19.3448C20.4368 18.2215 20.2496 17.3167 19.9064 16.5991C19.5632 15.8814 19.0951 15.2886 18.5023 14.883C17.9095 14.4462 17.2543 14.1654 16.5054 13.9782C15.7566 13.8222 15.0078 13.7285 14.259 13.7285C13.4789 13.7285 12.8549 13.8222 12.3869 13.9782C11.8877 14.1342 11.5132 14.3526 11.2324 14.6334C10.9516 14.9142 10.7644 15.2262 10.6708 15.5694C10.5772 15.9126 10.5148 16.2871 10.5148 16.6927L10.4212 41.4665C10.8892 41.7161 11.4508 41.9345 12.0749 42.1217C12.6053 42.2777 13.2293 42.4337 13.9469 42.5897C14.6646 42.7145 15.4758 42.7769 16.3806 42.7769C17.1607 42.7769 18.0031 42.6521 18.9079 42.3713C19.8128 42.0905 20.6552 41.6537 21.4352 41.092C22.2153 40.5304 22.8705 39.7816 23.4009 38.908C23.9313 38.0343 24.181 36.9735 24.181 35.7566C24.181 34.7582 24.0562 33.8846 23.8065 33.1357C23.5569 32.3869 23.2137 31.7629 22.7769 31.2012C22.3401 30.6708 21.8409 30.234 21.248 29.8908C20.6864 29.5476 20.0936 29.298 19.4384 29.0796C18.8143 28.8924 18.1591 28.7675 17.5039 28.6739C16.8487 28.6115 16.2558 28.5803 15.663 28.5803C15.195 28.5803 14.7894 28.6115 14.3838 28.6427C13.9781 28.6739 13.6349 28.7051 13.3541 28.7363C13.0109 28.7987 12.6677 28.83 12.3869 28.8924L12.0437 28.0499C13.6037 27.8627 15.0078 27.4259 16.2246 26.7395C16.7551 26.4587 17.2543 26.0842 17.7535 25.6786C18.2527 25.2418 18.6895 24.7426 19.0952 24.1498C19.5008 23.5569 19.8128 22.8705 20.0624 22.0593C20.312 21.248 20.4368 20.3432 20.4368 19.3448Z" fill="white"/>
<path d="M33.791 3.80655H44.3058V41.4041H59.8128C59.2824 41.9345 58.8144 42.5273 58.44 43.2449C58.0655 43.9314 57.7847 44.6178 57.5351 45.2418C57.2855 45.9906 57.0671 46.7707 56.9111 47.5195L55.9127 47.7379C55.9751 47.4883 56.0375 47.2387 56.0375 46.9579C56.0375 46.6771 56.0687 46.4587 56.0687 46.2403C56.0687 45.3042 55.7878 44.6178 55.195 44.1498C54.6022 43.6818 53.7598 43.3697 52.6677 43.2137C51.5757 43.0577 50.234 42.9641 48.6428 42.9953C47.0515 43.0265 45.273 43.0265 43.3074 43.0265H33.7598V42.2465C34.5086 42.2465 35.1326 42.1841 35.6006 42.0281C36.0687 41.8721 36.4743 41.6849 36.7551 41.4041C37.0359 41.1544 37.2231 40.8424 37.3479 40.4992C37.4415 40.156 37.5039 39.7816 37.5039 39.4072V7.36349C37.5039 7.08268 37.4415 6.77067 37.3479 6.45866C37.2543 6.14664 37.0359 5.83463 36.7863 5.55382C36.5367 5.27301 36.1311 5.0546 35.6318 4.86739C35.1638 4.68018 34.5086 4.58658 33.7598 4.58658V3.80655H33.791Z" fill="white"/>
<path d="M87.0515 19.3136C86.6458 18.4087 86.1154 17.6287 85.429 16.9111C84.7738 16.2246 84.0249 15.6318 83.2137 15.1326C82.4025 14.6646 81.5288 14.2902 80.624 14.0406C79.7192 13.7909 78.8143 13.6661 77.9095 13.6661C76.9423 13.6661 76.0062 13.8534 75.1326 14.1966C74.2589 14.5398 73.4477 15.0078 72.6989 15.6318C71.9501 16.2246 71.2636 16.9423 70.6708 17.7847C70.0468 18.6271 69.5164 19.5008 69.0483 20.468C68.5803 21.4353 68.2059 22.4337 67.8939 23.4945C67.5819 24.5554 67.3947 25.585 67.2387 26.6459H85.4914C85.1794 27.2387 84.961 27.8627 84.805 28.5179C84.649 29.1732 84.5242 29.7972 84.4618 30.3588C84.3682 31.014 84.337 31.6693 84.3058 32.2933L83.5881 32.4181C83.4009 31.5133 83.1825 30.7644 82.9017 30.1716C82.6209 29.5788 82.2153 29.1108 81.6848 28.7675C81.1544 28.4243 80.4368 28.1747 79.532 28.0499C78.6271 27.9251 77.4415 27.8627 76.0062 27.8627H67.1763V28.7675C67.1763 29.922 67.3011 31.0452 67.5819 32.1685C67.8627 33.2917 68.2371 34.3214 68.7363 35.351C69.2355 36.3807 69.8596 37.2855 70.5772 38.1279C71.2948 38.9704 72.1061 39.688 73.0109 40.312C73.9157 40.936 74.883 41.4041 75.9438 41.7473C77.0047 42.0905 78.1279 42.2465 79.3448 42.2465C80.4368 42.2465 81.3728 42.1529 82.2153 41.9345C83.0265 41.7161 83.7441 41.4665 84.3681 41.1544C84.961 40.8424 85.4914 40.4992 85.897 40.1248C86.3026 39.7504 86.6458 39.376 86.9267 39.0328C87.2075 38.6895 87.3947 38.3775 87.5195 38.1279C87.6443 37.8783 87.7691 37.6911 87.8315 37.5975L87.4883 40.5928C87.1763 41.0608 86.677 41.4977 86.053 41.9033C85.429 42.3089 84.6802 42.7145 83.8377 43.0265C82.9641 43.3697 82.0281 43.6193 80.936 43.8377C79.8752 44.025 78.7207 44.1498 77.4727 44.1498C75.1014 44.1498 72.8549 43.8065 70.7332 43.1201C68.6115 42.4337 66.7706 41.4353 65.1794 40.156C63.5881 38.8767 62.3089 37.3167 61.3728 35.507C60.4368 33.6973 59.9376 31.6693 59.9064 29.454C59.9376 27.1451 60.3432 25.0858 61.1232 23.2449C61.872 21.4041 62.9017 19.8128 64.1809 18.4399C65.4602 17.0671 66.9267 15.9438 68.6427 15.039C70.3276 14.1342 72.1373 13.4789 74.0717 13.0109C75.0702 12.7613 76.2246 12.6053 77.5351 12.5429C78.8455 12.4805 80.156 12.4493 81.4664 12.4493C82.7457 12.4493 83.9625 12.4493 85.0858 12.4805C86.209 12.5117 87.1763 12.5117 87.9251 12.5117C87.7691 13.1669 87.6443 13.7597 87.5819 14.2902C87.5195 14.8206 87.4883 15.2886 87.4883 15.7566C87.4883 16.4119 87.5507 17.0047 87.6443 17.5351C87.7379 18.0967 87.8939 18.6583 88.0499 19.2824L87.0515 19.3136Z" fill="white"/>
<path d="M91.7317 12.4805H102.434L118.565 32.1061V16.0686C118.565 15.7878 118.502 15.4758 118.409 15.1638C118.315 14.8518 118.097 14.5398 117.847 14.259C117.566 13.9782 117.192 13.7598 116.693 13.5725C116.225 13.3853 115.569 13.2917 114.821 13.2917V12.4805H124.275V13.2605C123.495 13.2605 122.871 13.3541 122.371 13.5101C121.903 13.6661 121.498 13.8846 121.217 14.1654C120.936 14.4462 120.749 14.7582 120.655 15.1014C120.562 15.4446 120.499 15.819 120.499 16.2246V43.0577H118.565L97.3791 17.5039V39.3136C97.3791 39.5944 97.4103 39.9064 97.5039 40.2496C97.5975 40.5928 97.7847 40.9048 98.0343 41.2168C98.284 41.5289 98.6896 41.7785 99.1576 41.9657C99.6568 42.1841 100.312 42.2777 101.123 42.2777V43.0577H91.7317V42.2777C92.5117 42.2777 93.1357 42.1841 93.6038 42.0281C94.103 41.8721 94.4774 41.6537 94.7582 41.3729C95.039 41.092 95.2262 40.78 95.3198 40.4368C95.4134 40.0936 95.4758 39.7192 95.4758 39.3136V15.195C95.1326 14.8206 94.8206 14.5086 94.5398 14.259C94.259 14.0094 93.9782 13.8222 93.6662 13.6661C93.3854 13.5101 93.0733 13.4165 92.7613 13.3541C92.4493 13.2917 92.1061 13.2605 91.7317 13.2605V12.4805Z" fill="white"/>
<path d="M142.434 44.1186C140.374 44.1186 138.44 43.7754 136.599 43.0889C134.758 42.4025 133.167 41.4041 131.794 40.156C130.421 38.908 129.329 37.4103 128.549 35.663C127.738 33.9158 127.363 32.0125 127.363 29.9532C127.363 28.0187 127.769 26.1778 128.58 24.4306C129.392 22.6833 130.546 21.092 132.044 19.6568C133.541 18.2215 135.382 16.9423 137.535 15.8502C139.688 14.7582 142.09 13.8534 144.743 13.1669L143.12 12.0437C142.122 11.3573 141.373 10.546 140.936 9.60998C140.499 8.67395 140.281 7.73791 140.281 6.73947C140.281 6.02184 140.374 5.33541 140.593 4.61778C140.811 3.93136 141.092 3.27613 141.466 2.68331C141.841 2.09048 142.278 1.56006 142.777 1.09204C143.276 0.624025 143.807 0.280811 144.431 0L144.93 0.780031C143.963 1.46646 143.495 2.24649 143.495 3.12012C143.495 3.93136 143.869 4.80499 144.618 5.70983C145.367 6.64587 146.427 7.6131 147.831 8.61154C150.203 10.3588 152.293 11.9813 154.103 13.5101C155.913 15.039 157.41 16.5679 158.627 18.0655C159.844 19.5632 160.749 21.092 161.404 22.6521C162.059 24.2122 162.371 25.897 162.402 27.7067C162.402 29.5476 162.153 31.2012 161.622 32.7301C161.092 34.259 160.374 35.6006 159.438 36.8175C158.502 38.0343 157.41 39.0952 156.162 40C154.883 40.9048 153.51 41.6537 152.044 42.2777C150.577 42.8705 149.017 43.3385 147.395 43.6193C145.71 43.9626 144.056 44.1186 142.434 44.1186ZM155.133 29.4852C155.133 28.0499 154.977 26.7083 154.665 25.429C154.353 24.1498 153.853 22.9017 153.167 21.6849C152.48 20.468 151.576 19.2512 150.452 18.0343C149.329 16.8175 147.925 15.5694 146.271 14.2902C145.148 14.5398 144.087 14.9142 143.058 15.4134C142.059 15.9126 141.123 16.5367 140.25 17.2543C139.376 17.9719 138.596 18.7831 137.878 19.688C137.161 20.5928 136.568 21.5601 136.1 22.5585C135.601 23.5881 135.226 24.649 134.945 25.741C134.665 26.8331 134.54 27.9563 134.54 29.0796C134.54 30.2028 134.665 31.2948 134.914 32.3557C135.164 33.4165 135.507 34.4462 135.944 35.4134C136.381 36.3807 136.942 37.2855 137.597 38.0967C138.253 38.908 139.002 39.6256 139.813 40.2184C140.624 40.8112 141.529 41.2792 142.496 41.6225C143.463 41.9657 144.493 42.1217 145.585 42.1217C146.895 42.1217 148.143 41.8097 149.298 41.1856C150.452 40.5616 151.451 39.688 152.324 38.5959C153.198 37.4727 153.853 36.131 154.353 34.571C154.883 33.0733 155.133 31.3573 155.133 29.4852Z" fill="white"/>
<path d="M174.914 43.6193C173.604 43.6193 172.512 43.5881 171.7 43.5257C170.889 43.4633 170.203 43.4009 169.641 43.3385C169.111 43.2449 168.643 43.1825 168.3 43.1513C167.956 43.0889 167.613 43.0577 167.239 43.0577C167.395 42.4025 167.519 41.8409 167.582 41.3104C167.644 40.78 167.676 40.2808 167.676 39.8128C167.676 39.1576 167.613 38.5647 167.52 38.0343C167.395 37.4727 167.27 36.9111 167.114 36.2871L168.081 36.2558C168.487 37.1607 169.08 37.9719 169.86 38.7207C170.671 39.4696 171.544 40.1248 172.512 40.6552C173.479 41.2168 174.509 41.6225 175.569 41.9345C176.63 42.2465 177.66 42.4025 178.627 42.4025C179.782 42.4025 180.842 42.2153 181.81 41.8097C182.777 41.4041 183.619 40.8736 184.306 40.2184C184.992 39.5632 185.554 38.8144 185.928 37.9719C186.334 37.1295 186.521 36.2559 186.521 35.351C186.521 34.3838 186.303 33.5725 185.835 32.9485C185.398 32.3245 184.805 31.8253 184.056 31.4509C183.307 31.0764 182.465 30.7956 181.498 30.6084C180.53 30.4212 179.563 30.2652 178.534 30.1716C177.785 30.078 176.973 29.9844 176.069 29.8596C175.195 29.7348 174.29 29.5788 173.385 29.3604C172.48 29.142 171.638 28.83 170.796 28.4555C169.984 28.0811 169.236 27.6131 168.612 27.0203C167.956 26.4275 167.457 25.741 167.083 24.8986C166.708 24.0562 166.521 23.0577 166.521 21.9033C166.521 20.5304 166.802 19.3136 167.332 18.2839C167.863 17.2543 168.58 16.3807 169.485 15.663C170.359 14.9454 171.388 14.3214 172.543 13.8534C173.697 13.3853 174.883 13.0109 176.1 12.7301C177.317 12.4493 178.534 12.2621 179.719 12.1685C180.936 12.0749 182.028 12.0125 183.027 12.0125C183.9 12.0125 184.711 12.0437 185.46 12.1061C186.209 12.1685 186.927 12.2309 187.582 12.2933C188.237 12.3557 188.83 12.4181 189.36 12.4493C189.922 12.5117 190.421 12.5117 190.858 12.5117C190.702 13.1669 190.577 13.7598 190.515 14.2902C190.452 14.8206 190.421 15.3198 190.421 15.7878C190.421 16.4119 190.484 16.9735 190.577 17.5351C190.671 18.0967 190.827 18.6583 190.983 19.2824L190.016 19.3136C189.797 18.7832 189.579 18.2839 189.36 17.7535C189.173 17.2543 188.924 16.7551 188.643 16.3183C188.362 15.8814 188.019 15.4446 187.613 15.0702C187.207 14.6958 186.677 14.3526 186.053 14.103C185.429 13.8222 184.649 13.6037 183.713 13.4477C182.808 13.2917 181.685 13.2293 180.374 13.2293C179.501 13.2293 178.627 13.3853 177.816 13.6973C176.973 14.0094 176.256 14.4462 175.601 14.9766C174.945 15.5382 174.446 16.1934 174.041 16.9423C173.635 17.6911 173.448 18.5335 173.448 19.4384C173.448 20.2184 173.604 20.8736 173.885 21.4353C174.165 21.9969 174.571 22.4649 175.039 22.8393C175.507 23.2137 176.037 23.5257 176.63 23.7754C177.223 24.025 177.816 24.2122 178.409 24.337C179.002 24.4618 179.563 24.5554 180.094 24.6178C180.624 24.6802 181.061 24.7114 181.435 24.7426C182.09 24.805 182.871 24.8986 183.713 24.9922C184.555 25.117 185.429 25.273 186.303 25.5226C187.176 25.7722 188.05 26.053 188.892 26.4587C189.735 26.8331 190.484 27.3323 191.139 27.9563C191.794 28.5803 192.324 29.298 192.73 30.1716C193.136 31.0452 193.323 32.0437 193.323 33.2293C193.323 34.7894 193.042 36.0998 192.512 37.2231C191.981 38.3463 191.264 39.2824 190.359 40.0624C189.454 40.8424 188.393 41.4665 187.176 41.9033C185.959 42.3713 184.68 42.7145 183.307 42.9953C181.934 43.2449 180.53 43.4321 179.095 43.4945C177.66 43.5569 176.287 43.6193 174.914 43.6193Z" fill="white"/>
<path d="M57.7847 57.6287V57.0983H59.6256V57.7535C59.6256 58.4399 60 58.6583 60.624 58.6583C61.2481 58.6583 61.6225 58.4087 61.6225 57.7223C61.6225 56.9423 61.2481 56.4431 59.9688 55.6006C58.3464 54.5086 57.8159 53.7598 57.8159 52.6677C57.8159 51.2012 58.8144 50.3276 60.6864 50.3276C62.5585 50.3276 63.4946 51.2012 63.4946 52.6989V53.0733H61.6537V52.6053C61.6537 51.9189 61.3105 51.6693 60.6864 51.6693C60.0624 51.6693 59.7192 51.9189 59.7192 52.5741C59.7192 53.2605 60.1248 53.7597 61.4041 54.6022C63.0265 55.6942 63.5258 56.4431 63.5258 57.5975C63.5258 59.1264 62.4961 60 60.5928 60C58.752 60 57.7847 59.1576 57.7847 57.6287Z" fill="white"/>
<path d="M66.4275 50.4836H68.362V59.8752H66.4275V50.4836Z" fill="white"/>
<path d="M71.5757 50.4836H74.0094L75.8815 56.0998H75.9127V50.4836H77.6287V59.8752H75.6318L73.323 53.0109H73.2918V59.8752H71.5757V50.4836Z" fill="white"/>
<path d="M80.7177 57.6911V52.6365C80.7177 51.2012 81.7161 50.3276 83.557 50.3276C85.429 50.3276 86.3963 51.2012 86.3963 52.6365V53.6349H84.5554V52.5429C84.5554 51.9189 84.181 51.6693 83.5882 51.6693C82.9953 51.6693 82.6209 51.9189 82.6209 52.5429V57.7847C82.6209 58.4087 82.9953 58.6583 83.5882 58.6583C84.181 58.6583 84.5554 58.4087 84.5554 57.7847V56.3495H86.3963V57.6911C86.3963 59.1264 85.3978 60 83.557 60C81.6849 60 80.7177 59.1576 80.7177 57.6911Z" fill="white"/>
<path d="M89.3292 50.4836H94.6022V51.8253H91.2636V54.3214H93.9158V55.663H91.2636V58.5647H94.6022V59.9064H89.3292V50.4836Z" fill="white"/>
<path d="M104.743 52.6989H102.715V51.6381C104.337 51.6381 104.93 51.3573 105.367 50.4524H106.677V59.844H104.743V52.6989Z" fill="white"/>
<path d="M110.671 57.6287V57.4415H112.512V57.7223C112.512 58.4087 112.886 58.6583 113.51 58.6583C114.197 58.6583 114.571 58.4087 114.571 57.5039V55.6942H114.54C114.197 56.2246 113.635 56.5055 112.793 56.5055C111.357 56.5055 110.64 55.7254 110.64 54.3526V52.6677C110.64 51.17 111.669 50.2964 113.573 50.2964C115.476 50.2964 116.505 51.17 116.505 52.6677V57.5351C116.505 59.1264 115.569 59.9688 113.541 59.9688C111.669 60 110.671 59.1576 110.671 57.6287ZM114.571 54.259V52.6053C114.571 51.9813 114.228 51.7005 113.573 51.7005C112.917 51.7005 112.574 51.9813 112.574 52.6053V54.259C112.574 54.883 112.917 55.195 113.573 55.195C114.259 55.195 114.571 54.883 114.571 54.259Z" fill="white"/>
<path d="M123.401 51.8253H119.501V50.4836H125.304V51.7629L122.278 59.8752H120.312L123.401 51.8253Z" fill="white"/>
<path d="M131.669 58.1591H127.988V56.8175L131.513 50.4524H133.635V56.8175H134.54V58.1591H133.635V59.8752H131.669V58.1591ZM131.669 56.8175V53.1669H131.638L129.735 56.8175H131.669Z" fill="white"/>
<path d="M0.124817 54.3526H54.4462" stroke="white" stroke-width="4" stroke-miterlimit="10"/>
<path d="M139.189 54.3526H193.51" stroke="white" stroke-width="4" stroke-miterlimit="10"/>
</g>
<defs>
<clipPath id="clip0_12_929">
<rect width="193.51" height="60" fill="white"/>
</clipPath>
</defs>
</svg>
