<svg width="1917" height="956" viewBox="0 0 1917 956" fill="none" xmlns="http://www.w3.org/2000/svg">
<path d="M1917 34.353V911.51C1914.6 914.899 1917.3 929.071 1903.9 925.528C1888.5 931.844 1890.7 937.39 1872.3 929.226C1852.1 912.126 1845.3 952.025 1840.3 927.993C1836.5 929.842 1825.5 934.309 1806.99 917.364C1805.69 913.667 1793.59 906.118 1774.89 902.883C1745.79 903.037 1768.69 904.732 1742.19 899.186C1723.29 895.181 1715.49 895.335 1711.29 903.961C1695.99 901.805 1705.39 906.734 1682.69 910.74C1668.89 924.758 1674.29 918.288 1643.29 909.353C1638.29 907.659 1632.89 905.194 1602.58 897.8C1581.98 897.491 1564.28 889.789 1561.48 888.248H1561.58C1560.78 887.94 1560.88 887.94 1561.48 888.248C1542.28 891.483 1526.98 894.256 1521.28 892.87C1520.08 893.178 1515.18 888.711 1509.48 904.27C1488.48 908.275 1511.58 903.499 1496.68 916.902C1471.28 908.583 1477.68 914.591 1470.48 922.139C1458.58 926.453 1442.48 932.152 1443.38 922.91C1428.77 926.607 1444.28 938.16 1413.67 921.215C1411.67 907.196 1400.07 914.129 1390.57 913.513C1385.67 930.612 1360.77 908.121 1363.27 902.883C1348.47 902.267 1333.77 882.24 1338.07 896.875C1323.47 889.481 1312.47 891.483 1306.27 891.946C1287.17 894.873 1293.77 900.88 1280.77 889.789C1271.17 904.27 1260.07 897.954 1246.07 898.878C1234.86 891.021 1220.96 912.126 1212.76 908.121C1211.26 916.131 1183.26 899.032 1180.66 901.189C1170.36 893.486 1171.66 892.562 1148.36 904.115C1151.56 906.734 1129.36 916.131 1123.56 918.75C1123.86 899.032 1111.06 912.28 1101.56 935.233C1104.06 939.393 1084.26 941.395 1075.86 946.633C1051.55 941.858 1063.36 945.709 1038.05 948.944C1014.45 947.557 988.552 944.939 999.552 942.32C976.451 944.476 990.752 949.406 961.05 932.769C986.452 915.053 925.548 933.847 923.648 926.145C916.948 915.823 891.647 921.677 892.747 924.604C873.746 904.27 887.646 932.153 863.845 923.988C842.744 933.077 823.543 923.526 834.644 918.442C819.843 909.507 819.443 918.288 803.442 908.275C803.942 915.361 801.742 897.799 776.941 904.886C786.541 886.4 761.34 921.369 747.839 915.361C726.038 951.717 704.137 928.917 709.937 936.004C700.537 947.711 693.236 924.758 682.336 937.544C679.736 933.847 646.834 925.22 635.933 927.069C625.533 919.366 595.531 907.659 600.431 921.523C592.831 916.439 576.83 922.293 563.53 921.985C555.329 917.98 547.629 919.058 526.928 921.369C525.428 918.442 518.327 920.445 492.026 918.596C506.227 933.077 461.024 928.763 456.724 916.285C438.623 911.972 438.823 945.093 419.122 917.21C401.321 921.061 408.321 923.218 379.02 923.68C371.42 929.38 340.618 910.431 340.318 933.847C320.317 942.012 312.016 948.636 301.416 944.014C303.516 944.014 286.415 922.447 260.014 950.484C252.213 956.646 238.213 959.573 224.212 948.79C216.611 954.644 212.611 943.398 188.81 940.009C178.709 927.069 168.909 934.309 153.708 927.377C122.907 916.439 147.708 905.04 118.906 913.975C103.406 902.729 76.3041 905.81 84.2045 903.037C86.4047 890.867 76.5041 884.705 48.2027 893.948C24.5014 885.013 17.8011 857.593 7.80056 885.013C4.20038 886.4 0.600188 886.092 -3 885.167V91.3512C2.40028 94.4322 7.30054 96.2808 10.1007 92.4296C31.1018 104.754 35.602 95.5106 48.1027 93.1998C53.703 82.5704 66.7036 97.9754 72.5039 88.4243C89.1048 81.0299 76.9042 81.184 97.1052 87.8081C110.906 85.0352 103.906 81.338 125.007 91.5053C132.007 94.1241 154.208 100.44 153.408 87.5C151.808 85.9595 162.409 79.9516 175.309 73.0194C197.11 71.1708 182.91 68.0898 197.41 60.5414C190.01 45.7526 205.411 59.309 224.912 57.7685C237.113 54.6875 243.413 49.7579 253.513 58.5387C257.314 42.5176 286.215 63.3143 281.215 56.8442C292.415 42.8257 314.717 66.7034 310.616 45.1365C319.917 59.463 323.917 23.5695 339.518 33.8909C355.419 18.9481 352.719 28.191 364.919 33.2747C374.22 28.8072 378.12 30.5018 390.02 36.5097C399.921 26.8046 386.22 38.2042 416.222 38.6664C421.022 51.2984 448.223 57.9225 453.324 35.4313C454.724 48.0634 479.825 30.0396 490.226 35.5854C500.626 28.4991 502.926 34.0449 520.827 45.9067C541.428 42.8257 539.828 59.463 555.829 52.8389C549.729 48.8336 555.029 48.0634 570.73 51.9146C574.73 60.8495 582.83 52.8389 585.531 52.3768C592.731 57.4604 587.831 56.074 603.132 61.7738C604.332 45.5986 609.732 64.0845 618.932 71.4789C637.633 75.9463 628.533 73.0194 644.134 75.3301C661.135 86.2676 660.435 81.4921 669.835 74.5599C683.836 70.7086 679.536 77.7949 694.636 77.0247C696.136 78.103 711.437 77.4868 723.738 89.9648C738.539 111.378 747.839 97.9754 755.139 99.5159C780.641 107.218 773.34 100.594 781.041 99.6699C781.641 89.6567 804.342 106.448 806.542 97.2051C819.343 81.4921 830.443 90.581 831.743 93.5079C842.744 82.7245 862.045 87.1919 872.046 84.7271C885.546 74.868 902.247 73.9437 907.947 71.941C908.948 68.3979 943.949 69.1681 942.449 56.074C952.05 56.8442 950.05 38.6664 963.95 42.6717C969.951 40.8231 973.251 32.1963 988.252 26.4965C997.252 19.8724 1004.15 19.8724 1010.95 16.3292C1024.95 16.9454 1026.35 11.7077 1035.75 16.6373C1048.75 22.7993 1047.95 34.199 1062.46 21.875C1071.16 14.9428 1082.46 27.1127 1089.46 23.4155C1090.56 16.9454 1124.16 20.9507 1124.76 14.7887C1129.06 8.78081 1136.76 12.0158 1158.26 4.00528C1168.26 0 1176.86 1.07835 1192.56 0C1210.16 8.01056 1205.76 7.85652 1226.06 2.31074C1240.86 13.0942 1266.97 -8.16462 1259.87 6.93222C1271.47 18.1778 1276.37 -5.23768 1293.97 10.6294C1332.17 4.15933 1303.87 3.54313 1327.47 13.8644C1327.47 13.2482 1348.87 -3.23504 1360.37 18.0238C1362.17 11.5537 1368.27 20.7967 1392.27 24.4938C1413.77 26.6505 1413.37 38.5123 1427.37 29.4234C1445.18 44.6743 1444.28 32.1963 1460.28 35.1233C1459.08 55.7659 1484.58 31.5801 1484.78 47.4472C1484.28 47.7553 1484.18 48.2174 1484.78 49.1417C1484.78 48.5255 1484.78 47.9093 1484.78 47.4472C1488.28 45.7527 1513.08 58.3847 1515.48 57.7685C1520.28 67.6277 1520.18 63.9305 1539.48 54.9956C1557.28 67.3196 1555.28 43.1338 1565.18 52.5308C1561.98 67.6277 1577.88 52.6849 1593.68 55.7659C1612.78 51.7606 1616.38 50.5282 1620.38 58.8468C1620.38 58.6928 1654.99 61.6197 1646.09 53.6092C1653.99 56.8442 1660.19 57.1523 1669.59 37.2799C1682.29 32.9666 1693.89 17.8697 1694.89 24.0317C1694.49 18.64 1721.39 22.6453 1728.19 22.1831C1731.59 8.62676 1754.29 12.1699 1761.19 19.4102C1781.49 -3.54313 1793.89 -2.31074 1791.89 8.78081C1787.99 9.39701 1820.5 15.0968 1825 12.632C1827.5 14.9428 1848.2 30.8099 1852.1 20.3345C1874.8 23.5695 1856 32.6585 1876.1 27.4208C1882.2 44.5203 1897.8 40.9771 1912.8 32.8125C1914.3 34.0449 1915.5 34.353 1917 34.353Z" fill="#F2E8DF"/>
</svg>
